<?xml version="1.0" standalone="no"?>
<!DOCTYPE svg PUBLIC "-//W3C//DTD SVG 20010904//EN"
 "http://www.w3.org/TR/2001/REC-SVG-20010904/DTD/svg10.dtd">
<svg version="1.0" xmlns="http://www.w3.org/2000/svg"
 width="700.000000pt" height="700.000000pt" viewBox="0 0 700.000000 700.000000"
 preserveAspectRatio="xMidYMid meet">
<metadata>
Created by potrace 1.11, written by Peter Selinger 2001-2013
</metadata>
<g transform="translate(0.000000,700.000000) scale(0.100000,-0.100000)"
fill="#000000" stroke="none">
<path d="M3415 6915 c-36 -15 -72 -42 -151 -112 -32 -28 -70 -61 -84 -73 -14
-12 -41 -36 -60 -53 -19 -18 -84 -75 -145 -127 -60 -52 -117 -102 -125 -110
-8 -9 -31 -28 -50 -44 -19 -16 -66 -57 -105 -91 -38 -34 -113 -100 -165 -145
-52 -45 -109 -95 -126 -110 -16 -15 -104 -92 -195 -171 -90 -79 -177 -156
-194 -171 -32 -28 -49 -43 -134 -116 -29 -26 -63 -56 -75 -67 -12 -11 -51 -45
-86 -75 -72 -63 -77 -67 -156 -137 -32 -28 -68 -60 -80 -70 -12 -10 -50 -44
-85 -75 -35 -31 -75 -66 -89 -78 -41 -36 -142 -124 -154 -135 -6 -6 -63 -55
-126 -110 -63 -55 -131 -114 -150 -131 -19 -18 -98 -87 -175 -154 -77 -67
-169 -148 -204 -179 -35 -31 -82 -72 -105 -91 -22 -19 -47 -42 -56 -50 -9 -8
-47 -42 -85 -75 -237 -204 -250 -222 -250 -330 0 -58 5 -78 28 -117 63 -108
188 -151 299 -104 32 14 159 113 193 150 6 6 36 33 68 60 l57 48 0 -1793 c0
-1268 3 -1806 11 -1834 16 -59 67 -120 124 -149 l50 -25 2670 2 c2579 2 2671
3 2707 21 47 23 91 68 115 115 17 34 18 130 23 1848 l5 1813 26 -23 c14 -12
57 -50 95 -83 129 -115 169 -145 214 -158 58 -17 123 -12 174 15 91 47 130
110 130 214 0 107 -19 134 -214 300 -51 44 -100 87 -109 95 -9 9 -50 45 -91
80 -41 36 -77 67 -80 70 -3 3 -95 84 -205 180 -110 96 -202 177 -205 180 -3 3
-57 50 -120 105 -63 55 -117 102 -120 105 -3 3 -77 68 -165 145 -88 77 -165
144 -171 150 -6 5 -40 35 -74 65 -35 30 -68 59 -74 65 -6 5 -29 26 -52 45 -91
79 -329 288 -438 384 -38 34 -78 69 -90 79 -12 10 -32 28 -46 40 -14 12 -187
164 -385 337 -198 173 -376 329 -395 346 -201 180 -326 285 -357 300 -46 22
-147 27 -188 9z m241 -680 c82 -71 154 -134 160 -140 6 -5 24 -21 40 -35 16
-14 70 -61 119 -104 140 -123 216 -190 265 -232 25 -22 61 -53 80 -70 19 -17
80 -71 135 -119 55 -48 114 -99 130 -114 17 -14 120 -105 230 -201 110 -96
202 -177 205 -180 3 -3 41 -36 85 -75 44 -38 85 -74 91 -80 6 -5 26 -23 45
-39 19 -16 68 -59 109 -95 41 -36 88 -78 105 -92 75 -66 210 -184 215 -189 5
-5 125 -109 173 -150 l27 -24 0 -1873 0 -1873 -668 0 -669 0 0 1128 0 1128
-25 55 c-28 61 -80 109 -143 129 -32 11 -211 13 -870 13 l-830 0 -50 -22 c-65
-29 -99 -62 -126 -125 l-22 -51 0 -1127 0 -1128 -669 0 -668 0 0 1873 0 1873
127 110 c69 60 131 114 137 120 10 10 29 26 185 163 70 60 155 135 209 184 19
16 68 59 110 95 43 37 82 71 88 77 32 29 149 131 224 196 47 41 87 76 90 79 3
3 41 37 85 75 44 39 93 82 110 96 16 15 91 80 165 144 74 65 153 134 175 154
22 20 92 81 155 136 63 55 117 102 120 105 3 3 39 34 80 70 41 36 80 70 86 75
6 6 41 37 79 70 38 33 85 74 105 92 19 18 38 31 41 30 4 -1 74 -60 155 -132z
m398 -4695 l0 -985 -554 0 -554 0 -1 970 c0 534 1 977 3 985 3 13 72 15 554
15 l552 -1 0 -984z"/>
<path d="M3169 4919 c-116 -17 -196 -105 -203 -225 -3 -46 2 -66 25 -112 16
-32 44 -69 62 -84 64 -50 102 -54 467 -53 319 1 337 2 375 22 58 30 93 67 118
121 54 121 0 259 -123 315 -42 19 -66 21 -360 21 -173 1 -336 -2 -361 -5z"/>
</g>
</svg>
